# xmcd
#
# Track frame offsets:
#	150
#	15846
#	29732
#	50246
#	65435
#	77082
#	88646
#	104860
#	117191
#	133915
#
# Disc length: 2058 seconds
#
# Revision: 1
# Processed by: cddbd v1.5.2PL0 Copyright (c) Steve Scherf et al.
# Submitted via: audiograbber 1.83.01
#
DISCID=8b08080a
DTITLE=Happy Dragon - Band, The - The Happy Dragon - Band
DYEAR=1978
DGENRE=Progressive Rock
TTITLE0=3-D, Free
TTITLE1=Positive People
TTITLE2=In Flight
TTITLE3=A Long Time
TTITLE4=Bowling Pin Intro
TTITLE5=Lyrics Of Love
TTITLE6=Disco American
TTITLE7=Inside The Pyramid
TTITLE8=Astro Phunk
TTITLE9=3-D, Free (Electronic)
EXTD=
EXTT0=
EXTT1=
EXTT2=
EXTT3=
EXTT4=
EXTT5=
EXTT6=
EXTT7=
EXTT8=
EXTT9=
PLAYORDER=
